<svg xmlns="http://www.w3.org/2000/svg" version="1.1" xmlns:xlink="http://www.w3.org/1999/xlink" xmlns:svgjs="http://svgjs.dev/svgjs" width="1000" height="623" viewBox="0 0 1000 623"><g transform="matrix(1,0,0,1,-0.6060606060606233,0.2522267206477409)"><svg viewBox="0 0 396 247" data-background-color="#ffffff" preserveAspectRatio="xMidYMid meet" height="623" width="1000" xmlns="http://www.w3.org/2000/svg" xmlns:xlink="http://www.w3.org/1999/xlink"><g id="tight-bounds" transform="matrix(1,0,0,1,0.2400000000000091,-0.09999999999999432)"><svg viewBox="0 0 395.52 247.2" height="247.2" width="395.52"><g><svg></svg></g><g><svg viewBox="0 0 395.52 247.2" height="247.2" width="395.52"><g transform="matrix(1,0,0,1,75.54432,107.12448135706484)"><svg viewBox="0 0 244.43135999999998 32.95103728587033" height="32.95103728587033" width="244.43135999999998"><g><svg viewBox="0 0 244.43135999999998 32.95103728587033" height="32.95103728587033" width="244.43135999999998"><g><svg viewBox="0 0 244.43135999999998 32.95103728587033" height="32.95103728587033" width="244.43135999999998"><g><svg viewBox="0 0 244.43135999999998 32.95103728587033" height="32.95103728587033" width="244.43135999999998"><g><svg viewBox="0 0 244.43135999999998 32.95103728587033" height="32.95103728587033" width="244.43135999999998"><g><svg viewBox="0 0 244.43135999999998 32.95103728587033" height="32.95103728587033" width="244.43135999999998"><g transform="matrix(1,0,0,1,0,0)"><svg width="244.43135999999998" viewBox="2.25 -39.599998474121094 389.0350036621094 52.44999694824219" height="32.95103728587033" data-palette-color="#1496dc"><path d="M14.55-35.25Q18.1-35.25 21.28-33.88 24.45-32.5 26.38-29.93 28.3-27.35 28.3-23.95L28.3-23.95Q28.3-20.8 26.6-18.43 24.9-16.05 21.93-14.78 18.95-13.5 15.15-13.5L15.15-13.5Q10.5-13.5 7.5-15.25L7.5-15.25 7.35-1.15Q7.35-0.4 6.95-0.03 6.55 0.35 5.95 0.35L5.95 0.35Q4.55 0.35 4.55-1.35L4.55-1.35Q4.55-3.35 4.65-7.35L4.65-7.35Q4.75-12.25 4.75-16.45L4.75-16.45Q4.75-22.1 4.55-28.3L4.55-28.3Q4.5-28.65 4.5-29.4L4.5-29.4 4-29.15Q3.7-29 3.4-29L3.4-29Q2.85-29 2.55-29.48 2.25-29.95 2.25-30.55L2.25-30.55Q2.25-31.15 3.15-31.65L3.15-31.65 4.4-32.35 4.4-33.65Q4.4-34.5 4.75-34.9 5.1-35.3 5.85-35.3L5.85-35.3Q7.2-35.3 7.2-34.35L7.2-34.35 7.2-33.7Q10.9-35.25 14.55-35.25L14.55-35.25ZM14.55-15.9Q17.8-15.9 20.28-16.98 22.75-18.05 24.08-19.9 25.4-21.75 25.4-24.05L25.4-24.05Q25.4-26.55 23.9-28.53 22.4-30.5 19.9-31.6 17.4-32.7 14.5-32.7L14.5-32.7Q11.25-32.7 7.25-30.85L7.25-30.85 7.25-29.8Q7.35-26.3 7.35-25.3L7.35-25.3Q7.35-23.9 7.45-20.9L7.45-20.9 7.5-17.7Q10.6-15.9 14.55-15.9L14.55-15.9ZM45.35 0.1Q41.25 0.1 38.35-1.7 35.45-3.5 33.97-6.4 32.5-9.3 32.5-12.65L32.5-12.65Q32.5-16.1 34.05-19.1 35.6-22.1 38.52-23.88 41.45-25.65 45.3-25.65L45.3-25.65Q48.65-25.65 51.3-24.28 53.95-22.9 55.42-20.48 56.9-18.05 56.9-15L56.9-15Q56.9-13.6 56.57-13.1 56.25-12.6 55-12.55L55-12.55 35.1-12.05Q35.1-9.65 36.35-7.4 37.6-5.15 39.9-3.73 42.2-2.3 45.3-2.3L45.3-2.3Q47.65-2.3 49.25-3.03 50.85-3.75 51.77-4.67 52.7-5.6 53.95-7.2L53.95-7.2Q54.2-7.55 54.75-7.55L54.75-7.55Q55.25-7.55 55.67-7.18 56.1-6.8 56.1-6.3L56.1-6.3Q56.1-5.9 55.75-5.45L55.75-5.45Q54.15-3.1 51.85-1.5 49.55 0.1 45.35 0.1L45.35 0.1ZM35.1-14.3L54.15-14.85Q54.4-14.85 54.47-15 54.55-15.15 54.55-15.5L54.55-15.5Q54.55-17.7 53.37-19.5 52.2-21.3 50.1-22.3 48-23.3 45.4-23.3L45.4-23.3Q42.35-23.3 40-21.8 37.65-20.3 36.37-18.18 35.1-16.05 35.1-14.3L35.1-14.3ZM74.55-25.6Q77.84-25.6 79.52-23.6 81.2-21.6 81.2-18.85L81.2-18.85Q81.2-16.15 79.67-14.7 78.15-13.25 75.9-13.25L75.9-13.25Q75.09-13.25 74.77-13.5 74.45-13.75 74.45-14.35L74.45-14.35Q74.45-14.85 74.67-15.1 74.9-15.35 75.45-15.4L75.45-15.4Q76.95-15.55 77.87-16.25 78.8-16.95 78.8-18.85L78.8-18.85Q78.8-20.6 77.82-21.93 76.84-23.25 74.5-23.25L74.5-23.25Q71.2-23.25 69.42-19.9 67.64-16.55 67.25-11.55L67.25-11.55Q67-7.75 67-1.85L67-1.85Q67-0.55 66.72-0.08 66.45 0.4 65.7 0.4L65.7 0.4Q64.95 0.4 64.64 0.03 64.34-0.35 64.34-1.3L64.34-1.3 64.25-11.4Q64.25-15.4 63.65-21.8L63.65-21.8 63.4-25.05Q63.34-25.65 63.75-25.98 64.14-26.3 64.75-26.3L64.75-26.3Q65.34-26.3 65.64-25.95 65.95-25.6 65.95-25.1L65.95-25.1Q66.2-22.2 66.34-17.55L66.34-17.55Q67.05-21.55 69.25-23.58 71.45-25.6 74.55-25.6L74.55-25.6ZM96.59 0.2Q93.19 0.2 90.97-1.45 88.74-3.1 87.24-5.8L87.24-5.8Q86.89-6.4 86.89-6.65L86.89-6.65Q86.89-7.2 87.44-7.63 87.99-8.05 88.54-7.95L88.54-7.95Q88.79-7.9 89.09-7.58 89.39-7.25 89.69-6.75L89.69-6.75Q90.94-4.65 92.57-3.45 94.19-2.25 96.59-2.25L96.59-2.25Q99.09-2.25 100.67-3.48 102.24-4.7 102.24-6.55L102.24-6.55Q102.24-7.85 101.39-8.72 100.54-9.6 99.29-10.18 98.04-10.75 95.84-11.5L95.84-11.5Q93.24-12.4 91.62-13.2 89.99-14 88.84-15.38 87.69-16.75 87.69-18.85L87.69-18.85Q87.69-20.7 88.67-22.33 89.64-23.95 91.49-24.95 93.34-25.95 95.94-25.95L95.94-25.95Q98.44-25.95 100.42-25 102.39-24.05 103.49-22.4 104.59-20.75 104.59-18.75L104.59-18.75Q104.59-17.95 104.32-17.6 104.04-17.25 103.34-17.25L103.34-17.25Q102.64-17.25 102.37-17.55 102.09-17.85 102.09-18.35L102.09-18.35Q101.99-21.05 100.24-22.3 98.49-23.55 95.94-23.55L95.94-23.55Q92.89-23.55 91.64-22.05 90.39-20.55 90.39-18.9L90.39-18.9Q90.39-17 92.02-15.93 93.64-14.85 96.94-13.7L96.94-13.7Q99.59-12.75 101.17-11.98 102.74-11.2 103.84-9.88 104.94-8.55 104.94-6.55L104.94-6.55Q104.94-3.6 102.59-1.7 100.24 0.2 96.59 0.2L96.59 0.2ZM123.29 0.05Q117.94 0.05 114.19-2.88 110.44-5.8 110.44-12.35L110.44-12.35Q110.44-16.3 111.92-19.35 113.39-22.4 116.24-24.1 119.09-25.8 123.04-25.8L123.04-25.8Q126.79-25.8 129.74-24.25 132.69-22.7 134.42-19.68 136.14-16.65 136.14-12.45L136.14-12.45Q136.14-6.3 132.57-3.13 128.99 0.05 123.29 0.05L123.29 0.05ZM123.24-2.35Q126.04-2.35 128.34-3.45 130.64-4.55 132.04-6.85 133.44-9.15 133.44-12.5L133.44-12.5Q133.44-15.8 132.12-18.28 130.79-20.75 128.44-22.1 126.09-23.45 123.14-23.45L123.14-23.45Q120.14-23.45 117.87-22.1 115.59-20.75 114.37-18.25 113.14-15.75 113.14-12.45L113.14-12.45Q113.14-7.15 116.14-4.75 119.14-2.35 123.24-2.35L123.24-2.35ZM153.99-25.4Q158.09-25.4 160.14-22.48 162.19-19.55 162.19-13.55L162.19-13.55 162.19-1.45Q162.19-0.1 160.89-0.1L160.89-0.1Q159.49-0.1 159.49-1.4L159.49-1.4 159.49-13.6Q159.49-18.45 158.24-20.73 156.99-23 153.84-23L153.84-23Q147.94-23 146.39-14.35L146.39-14.35Q145.94-11.9 145.94-8.8L145.94-8.8 145.99-1.1Q145.99-0.05 144.69-0.05L144.69-0.05Q144.09-0.05 143.71-0.35 143.34-0.65 143.34-1.1L143.34-1.1Q143.24-7.7 143.14-11.05L143.14-11.05Q142.99-15.5 142.99-19.4L142.99-19.4Q142.99-20.45 142.76-21.08 142.54-21.7 142.16-22.35 141.79-23 141.59-23.3L141.59-23.3Q141.44-23.55 141.44-23.9L141.44-23.9Q141.44-24.35 141.94-24.73 142.44-25.1 142.89-25.1L142.89-25.1Q143.39-25.1 143.94-24.35L143.94-24.35Q144.54-23.3 144.99-22.28 145.44-21.25 145.44-20.05L145.44-20.05 145.44-18.9Q146.29-21.7 148.39-23.55 150.49-25.4 153.99-25.4L153.99-25.4ZM191.94-2.5Q192.54-2.4 192.84-2.18 193.14-1.95 193.14-1.35L193.14-1.35Q193.14-0.8 192.84-0.48 192.54-0.15 192.04-0.15L192.04-0.15Q190.04-0.15 189.11-0.88 188.19-1.6 187.59-3.55L187.59-3.55Q186.49-1.65 184.39-0.63 182.28 0.4 179.39 0.4L179.39 0.4Q175.24 0.4 172.76-1.53 170.28-3.45 169.28-6.2 168.28-8.95 168.28-11.8L168.28-11.8Q168.28-15.05 169.56-17.98 170.84-20.9 173.41-22.75 175.99-24.6 179.69-24.6L179.69-24.6Q185.14-24.6 187.54-20.3L187.54-20.3 187.89-22.95Q187.94-23.6 188.19-23.95 188.44-24.3 189.09-24.3L189.09-24.3Q189.84-24.3 190.24-23.95 190.64-23.6 190.54-23.15L190.54-23.15Q190.14-20.5 189.89-17.55L189.89-17.55Q189.69-15.4 189.69-11.75L189.69-11.75 189.69-8.5Q189.69-6 189.81-4.83 189.94-3.65 190.41-3.1 190.89-2.55 191.94-2.5L191.94-2.5ZM186.99-8.55Q187.04-11 187.04-14.5L187.04-14.5Q187.04-17.4 185.79-19.15 184.53-20.9 182.89-21.58 181.24-22.25 179.74-22.25L179.74-22.25Q176.74-22.25 174.76-20.58 172.78-18.9 171.89-16.48 170.99-14.05 170.99-11.8L170.99-11.8Q170.99-9.65 171.71-7.43 172.44-5.2 174.28-3.6 176.14-2 179.28-2L179.28-2Q182.53-2 184.74-3.68 186.94-5.35 186.99-8.55L186.99-8.55ZM202.13-0.45Q201.53-0.45 201.16-0.78 200.78-1.1 200.78-1.8L200.78-1.8 200.48-38.25Q200.48-38.9 200.88-39.25 201.28-39.6 201.93-39.6L201.93-39.6Q203.23-39.6 203.23-38.25L203.23-38.25 203.48-1.8Q203.48-0.45 202.13-0.45L202.13-0.45ZM256.63-17.25Q257.93-17.25 257.93-16L257.93-16Q257.93-15.4 257.58-15.08 257.23-14.75 256.68-14.75L256.68-14.75 254.83-14.8Q254.43-0.1 242.23-0.1L242.23-0.1Q237.13-0.1 233.3-2.48 229.48-4.85 227.45-8.8 225.43-12.75 225.43-17.35L225.43-17.35Q225.43-22 227.48-25.9 229.53-29.8 233.25-32.13 236.98-34.45 241.73-34.45L241.73-34.45Q248.48-34.45 252.68-29.65L252.68-29.65Q252.73-30.25 252.73-31.5L252.73-31.5Q252.73-32.9 254.08-32.9L254.08-32.9Q254.68-32.9 255.05-32.63 255.43-32.35 255.43-31.95L255.43-31.95Q255.43-28.7 254.93-27.55L254.93-27.55Q254.53-26.65 253.43-26.65L253.43-26.65Q252.93-26.65 252.6-26.83 252.28-27 251.73-27.5L251.73-27.5Q249.43-29.7 247.38-30.8 245.33-31.9 242.13-31.9L242.13-31.9Q237.93-31.9 234.75-29.88 231.58-27.85 229.85-24.48 228.13-21.1 228.13-17.15L228.13-17.15Q228.13-13.2 229.88-9.88 231.63-6.55 234.8-4.6 237.98-2.65 242.18-2.65L242.18-2.65Q247.28-2.65 249.68-5.73 252.08-8.8 252.23-14.8L252.23-14.8 244.48-14.95Q243.78-14.95 243.45-15.3 243.13-15.65 243.13-16.2L243.13-16.2Q243.13-16.85 243.55-17.18 243.98-17.5 244.53-17.5L244.53-17.5 256.63-17.25ZM286.18-2.5Q286.77-2.4 287.07-2.18 287.38-1.95 287.38-1.35L287.38-1.35Q287.38-0.8 287.07-0.48 286.77-0.15 286.27-0.15L286.27-0.15Q284.27-0.15 283.35-0.88 282.43-1.6 281.82-3.55L281.82-3.55Q280.72-1.65 278.63-0.63 276.52 0.4 273.63 0.4L273.63 0.4Q269.47 0.4 267-1.53 264.52-3.45 263.52-6.2 262.52-8.95 262.52-11.8L262.52-11.8Q262.52-15.05 263.8-17.98 265.07-20.9 267.65-22.75 270.22-24.6 273.93-24.6L273.93-24.6Q279.38-24.6 281.77-20.3L281.77-20.3 282.13-22.95Q282.18-23.6 282.43-23.95 282.68-24.3 283.32-24.3L283.32-24.3Q284.07-24.3 284.47-23.95 284.88-23.6 284.77-23.15L284.77-23.15Q284.38-20.5 284.13-17.55L284.13-17.55Q283.93-15.4 283.93-11.75L283.93-11.75 283.93-8.5Q283.93-6 284.05-4.83 284.18-3.65 284.65-3.1 285.13-2.55 286.18-2.5L286.18-2.5ZM281.22-8.55Q281.27-11 281.27-14.5L281.27-14.5Q281.27-17.4 280.02-19.15 278.77-20.9 277.13-21.58 275.47-22.25 273.97-22.25L273.97-22.25Q270.97-22.25 269-20.58 267.02-18.9 266.13-16.48 265.22-14.05 265.22-11.8L265.22-11.8Q265.22-9.65 265.95-7.43 266.68-5.2 268.52-3.6 270.38-2 273.52-2L273.52-2Q276.77-2 278.97-3.68 281.18-5.35 281.22-8.55L281.22-8.55ZM296.37-0.45Q295.77-0.45 295.4-0.78 295.02-1.1 295.02-1.8L295.02-1.8 294.72-38.25Q294.72-38.9 295.12-39.25 295.52-39.6 296.17-39.6L296.17-39.6Q297.47-39.6 297.47-38.25L297.47-38.25 297.72-1.8Q297.72-0.45 296.37-0.45L296.37-0.45ZM308.07-0.45Q307.47-0.45 307.09-0.78 306.72-1.1 306.72-1.8L306.72-1.8 306.42-38.25Q306.42-38.9 306.82-39.25 307.22-39.6 307.87-39.6L307.87-39.6Q309.17-39.6 309.17-38.25L309.17-38.25 309.42-1.8Q309.42-0.45 308.07-0.45L308.07-0.45ZM329.52 0.1Q325.42 0.1 322.52-1.7 319.62-3.5 318.14-6.4 316.67-9.3 316.67-12.65L316.67-12.65Q316.67-16.1 318.22-19.1 319.77-22.1 322.69-23.88 325.62-25.65 329.47-25.65L329.47-25.65Q332.82-25.65 335.47-24.28 338.12-22.9 339.59-20.48 341.07-18.05 341.07-15L341.07-15Q341.07-13.6 340.74-13.1 340.42-12.6 339.17-12.55L339.17-12.55 319.27-12.05Q319.27-9.65 320.52-7.4 321.77-5.15 324.07-3.73 326.37-2.3 329.47-2.3L329.47-2.3Q331.82-2.3 333.42-3.03 335.02-3.75 335.94-4.67 336.87-5.6 338.12-7.2L338.12-7.2Q338.37-7.55 338.92-7.55L338.92-7.55Q339.42-7.55 339.84-7.18 340.27-6.8 340.27-6.3L340.27-6.3Q340.27-5.9 339.92-5.45L339.92-5.45Q338.32-3.1 336.02-1.5 333.72 0.1 329.52 0.1L329.52 0.1ZM319.27-14.3L338.32-14.85Q338.57-14.85 338.64-15 338.72-15.15 338.72-15.5L338.72-15.5Q338.72-17.7 337.54-19.5 336.37-21.3 334.27-22.3 332.17-23.3 329.57-23.3L329.57-23.3Q326.52-23.3 324.17-21.8 321.82-20.3 320.54-18.18 319.27-16.05 319.27-14.3L319.27-14.3ZM358.71-25.6Q362.01-25.6 363.69-23.6 365.36-21.6 365.36-18.85L365.36-18.85Q365.36-16.15 363.84-14.7 362.31-13.25 360.06-13.25L360.06-13.25Q359.26-13.25 358.94-13.5 358.61-13.75 358.61-14.35L358.61-14.35Q358.61-14.85 358.84-15.1 359.06-15.35 359.61-15.4L359.61-15.4Q361.11-15.55 362.04-16.25 362.96-16.95 362.96-18.85L362.96-18.85Q362.96-20.6 361.99-21.93 361.01-23.25 358.66-23.25L358.66-23.25Q355.36-23.25 353.59-19.9 351.81-16.55 351.41-11.55L351.41-11.55Q351.16-7.75 351.16-1.85L351.16-1.85Q351.16-0.55 350.89-0.08 350.61 0.4 349.86 0.4L349.86 0.4Q349.11 0.4 348.81 0.03 348.51-0.35 348.51-1.3L348.51-1.3 348.41-11.4Q348.41-15.4 347.81-21.8L347.81-21.8 347.56-25.05Q347.51-25.65 347.91-25.98 348.31-26.3 348.91-26.3L348.91-26.3Q349.51-26.3 349.81-25.95 350.11-25.6 350.11-25.1L350.11-25.1Q350.36-22.2 350.51-17.55L350.51-17.55Q351.21-21.55 353.41-23.58 355.61-25.6 358.71-25.6L358.71-25.6ZM378.36 12.85Q377.71 12.85 377.29 12.5 376.86 12.15 376.86 11.6L376.86 11.6Q376.86 11.3 377.01 11L377.01 11Q379.86 4.45 381.96-1.75L381.96-1.75Q378.86-3.8 375.61-10.08 372.36-16.35 370.16-23.75L370.16-23.75Q370.06-24.1 370.11-24.3L370.11-24.3Q370.16-24.75 370.54-25.05 370.91-25.35 371.56-25.35L371.56-25.35Q372.06-25.35 372.29-25.13 372.51-24.9 372.66-24.3L372.66-24.3Q375.21-16.4 378.01-11.15 380.81-5.9 382.96-4.45L382.96-4.45Q384.61-9.7 385.69-13.68 386.76-17.65 388.41-24.45L388.41-24.45Q388.56-25.05 388.84-25.28 389.11-25.5 389.66-25.5L389.66-25.5Q391.01-25.5 391.26-24.4L391.26-24.4Q391.31-24.25 391.26-24.13 391.21-24 391.21-23.9L391.21-23.9Q389.36-16.3 388.36-12.63 387.36-8.95 385.66-4.2L385.66-4.2Q384.61-1.15 382.84 3.58 381.06 8.3 379.66 11.75L379.66 11.75Q379.41 12.35 379.14 12.6 378.86 12.85 378.36 12.85L378.36 12.85Z" opacity="1" transform="matrix(1,0,0,1,0,0)" fill="#1496dc" class="undefined-text-0" data-fill-palette-color="primary" id="text-0"></path></svg></g></svg></g></svg></g></svg></g><g></g></svg></g></svg></g></svg></g><g><path d="M113.031 99.346A122.216 122.216 0 0 1 282.489 99.346L279.517 99.346A119.244 119.244 0 0 0 116.003 99.346L113.031 99.346M113.031 147.854A122.216 122.216 0 0 0 282.489 147.854L279.517 147.854A119.244 119.244 0 0 1 116.003 147.854L113.031 147.854" fill="#8dbdff" stroke="transparent" data-fill-palette-color="tertiary"></path></g></svg></g><defs></defs></svg><rect width="395.52" height="247.2" fill="none" stroke="none" visibility="hidden"></rect></g></svg></g></svg>