<svg xmlns="http://www.w3.org/2000/svg" version="1.1" xmlns:xlink="http://www.w3.org/1999/xlink" xmlns:svgjs="http://svgjs.dev/svgjs" width="1000" height="1000" viewBox="0 0 1000 1000"><rect width="1000" height="1000" fill="#000000"></rect><g transform="matrix(0.7,0,0,0.7,149.57575757575756,282.1265587044535)"><svg viewBox="0 0 396 247" data-background-color="#1496dc" preserveAspectRatio="xMidYMid meet" height="623" width="1000" xmlns="http://www.w3.org/2000/svg" xmlns:xlink="http://www.w3.org/1999/xlink"><g id="tight-bounds" transform="matrix(1,0,0,1,0.2400000000000091,-0.09999999999999432)"><svg viewBox="0 0 395.52 247.2" height="247.2" width="395.52"><g><svg></svg></g><g><svg viewBox="0 0 395.52 247.2" height="247.2" width="395.52"><g transform="matrix(1,0,0,1,75.54432,96.1236303626108)"><svg viewBox="0 0 244.43135999999998 54.952739274778395" height="54.952739274778395" width="244.43135999999998"><g><svg viewBox="0 0 244.43135999999998 54.952739274778395" height="54.952739274778395" width="244.43135999999998"><g><svg viewBox="0 0 244.43135999999998 54.952739274778395" height="54.952739274778395" width="244.43135999999998"><g><svg viewBox="0 0 244.43135999999998 54.952739274778395" height="54.952739274778395" width="244.43135999999998"><g><svg viewBox="0 0 244.43135999999998 54.952739274778395" height="54.952739274778395" width="244.43135999999998"><g><svg viewBox="0 0 244.43135999999998 54.952739274778395" height="54.952739274778395" width="244.43135999999998"><g transform="matrix(1,0,0,1,0,0)"><svg width="244.43135999999998" viewBox="2.299999952316284 -47 310.2200012207031 69.75" height="54.952739274778395" data-palette-color="#ffffff"><path d="M41.15-29.8Q41.15-25.55 38.95-22 36.75-18.45 32.55-16.2 28.35-13.95 22.55-13.55L22.55-13.55 20.4-1.5Q19.15 5.45 13.6 5.45L13.6 5.45Q10.55 5.45 7.98 3.65 5.4 1.85 3.85-1.85 2.3-5.55 2.3-10.95L2.3-10.95Q2.3-21.1 5.58-28.18 8.85-35.25 14.38-38.78 19.9-42.3 26.55-42.3L26.55-42.3Q31.25-42.3 34.52-40.65 37.8-39 39.48-36.18 41.15-33.35 41.15-29.8L41.15-29.8ZM23.45-18.7Q33.7-20 33.7-29.35L33.7-29.35Q33.7-32.65 31.53-34.73 29.35-36.8 24.8-36.8L24.8-36.8Q19.65-36.8 15.83-33.55 12-30.3 9.93-24.53 7.85-18.75 7.85-11.35L7.85-11.35Q7.85-8.25 8.47-5.85 9.1-3.45 10.08-2.13 11.05-0.8 11.95-0.8L11.95-0.8Q13.2-0.8 13.85-4.25L13.85-4.25 15.5-13.7Q13.55-14 13.8-13.95L13.8-13.95Q12.3-14.2 11.85-14.88 11.4-15.55 11.4-16.6L11.4-16.6Q11.4-17.7 12.03-18.35 12.65-19 13.75-19L13.75-19Q14.25-19 14.5-18.95L14.5-18.95Q15.7-18.75 16.35-18.7L16.35-18.7Q17-22.6 18.2-29.15L18.2-29.15Q18.5-30.85 19.58-31.58 20.65-32.3 22.1-32.3L22.1-32.3Q23.75-32.3 24.48-31.68 25.2-31.05 25.2-29.7L25.2-29.7Q25.2-28.9 25.1-28.4L25.1-28.4 23.45-18.7ZM70.4-11.15Q71.05-11.15 71.42-10.55 71.8-9.95 71.8-8.9L71.8-8.9Q71.8-6.9 70.85-5.8L70.85-5.8Q68.55-3.15 66.12-1.45 63.7 0.25 60.6 0.25L60.6 0.25Q58.05 0.25 56.75-1.23 55.45-2.7 55.45-5.5L55.45-5.5Q55.45-6.9 56.15-10.5L56.15-10.5Q56.8-13.65 56.8-14.85L56.8-14.85Q56.8-15.65 56.25-15.65L56.25-15.65Q55.6-15.65 54.4-13.98 53.2-12.3 52-9.55 50.8-6.8 50.05-3.75L50.05-3.75Q49.1 0.25 45.35 0.25L45.35 0.25Q43.85 0.25 43.37-0.83 42.9-1.9 42.9-4.7L42.9-4.7Q42.9-6.3 42.95-7.25L42.95-7.25 43-11.25Q43-18.95 44.57-27.3 46.15-35.65 49.22-41.33 52.3-47 56.6-47L56.6-47Q58.9-47 60.32-45.03 61.75-43.05 61.75-39.9L61.75-39.9Q61.75-34.85 58.8-29.43 55.85-24 49.2-16.75L49.2-16.75Q49.05-14.15 49.05-11.4L49.05-11.4Q50.7-15.65 52.72-18.32 54.75-21 56.72-22.15 58.7-23.3 60.35-23.3L60.35-23.3Q63.6-23.3 63.6-20.05L63.6-20.05Q63.6-18.1 62.5-13L62.5-13Q61.55-8.65 61.55-7.25L61.55-7.25Q61.55-5.25 63-5.25L63-5.25Q64-5.25 65.37-6.48 66.75-7.7 69.05-10.45L69.05-10.45Q69.65-11.15 70.4-11.15L70.4-11.15ZM55.55-42.05Q54.65-42.05 53.55-39.48 52.45-36.9 51.42-32.52 50.4-28.15 49.75-23L49.75-23Q52.85-26.65 54.87-30.95 56.9-35.25 56.9-38.75L56.9-38.75Q56.9-40.35 56.55-41.2 56.2-42.05 55.55-42.05L55.55-42.05ZM93.25-15.35Q93.89-15.35 94.25-14.7 94.59-14.05 94.59-13.05L94.59-13.05Q94.59-10.65 93.14-10.2L93.14-10.2Q90.14-9.15 86.55-9L86.55-9Q85.59-4.8 82.8-2.27 80 0.25 76.44 0.25L76.44 0.25Q73.44 0.25 71.32-1.2 69.19-2.65 68.09-5.05 67-7.45 67-10.25L67-10.25Q67-14.05 68.44-17.03 69.89-20 72.44-21.68 75-23.35 78.09-23.35L78.09-23.35Q81.89-23.35 84.22-20.73 86.55-18.1 86.94-14.25L86.94-14.25Q89.3-14.4 92.55-15.25L92.55-15.25Q92.94-15.35 93.25-15.35L93.25-15.35ZM76.84-5.05Q78.44-5.05 79.62-6.35 80.8-7.65 81.19-10.1L81.19-10.1Q79.64-11.15 78.82-12.85 78-14.55 78-16.45L78-16.45Q78-17.25 78.14-18.05L78.14-18.05 77.89-18.05Q75.89-18.05 74.57-16.13 73.25-14.2 73.25-10.7L73.25-10.7Q73.25-7.95 74.32-6.5 75.39-5.05 76.84-5.05L76.84-5.05ZM113.84-11.15Q114.49-11.15 114.87-10.55 115.24-9.95 115.24-8.9L115.24-8.9Q115.24-6.9 114.29-5.8L114.29-5.8Q112.14-3.15 109.59-1.45 107.04 0.25 103.74 0.25L103.74 0.25Q93.54 0.25 93.54-14.1L93.54-14.1Q93.54-16.3 93.69-18.55L93.69-18.55 91.74-18.55Q90.24-18.55 89.72-19.1 89.19-19.65 89.19-20.85L89.19-20.85Q89.19-23.65 91.44-23.65L91.44-23.65 94.29-23.65Q95.14-29.15 96.89-33.7 98.64-38.25 101.12-40.95 103.59-43.65 106.44-43.65L106.44-43.65Q108.54-43.65 109.74-41.8 110.94-39.95 110.94-37.15L110.94-37.15Q110.94-29.4 104.44-23.65L104.44-23.65 110.04-23.65Q110.84-23.65 111.19-23.3 111.54-22.95 111.54-22L111.54-22Q111.54-18.55 105.89-18.55L105.89-18.55 99.79-18.55Q99.69-16.05 99.69-14.65L99.69-14.65Q99.69-9.45 100.92-7.35 102.14-5.25 104.79-5.25L104.79-5.25Q106.94-5.25 108.59-6.55 110.24-7.85 112.49-10.45L112.49-10.45Q113.09-11.15 113.84-11.15L113.84-11.15ZM105.09-38.85Q104.34-38.85 103.42-36.98 102.49-35.1 101.67-31.78 100.84-28.45 100.29-24.4L100.29-24.4Q103.24-26.95 104.72-30.13 106.19-33.3 106.19-35.9L106.19-35.9Q106.19-38.85 105.09-38.85L105.09-38.85ZM136.69-15.35Q137.34-15.35 137.69-14.7 138.04-14.05 138.04-13.05L138.04-13.05Q138.04-10.65 136.59-10.2L136.59-10.2Q133.59-9.15 129.99-9L129.99-9Q129.04-4.8 126.24-2.27 123.44 0.25 119.89 0.25L119.89 0.25Q116.89 0.25 114.77-1.2 112.64-2.65 111.54-5.05 110.44-7.45 110.44-10.25L110.44-10.25Q110.44-14.05 111.89-17.03 113.34-20 115.89-21.68 118.44-23.35 121.54-23.35L121.54-23.35Q125.34-23.35 127.67-20.73 129.99-18.1 130.39-14.25L130.39-14.25Q132.74-14.4 135.99-15.25L135.99-15.25Q136.39-15.35 136.69-15.35L136.69-15.35ZM120.29-5.05Q121.89-5.05 123.07-6.35 124.24-7.65 124.64-10.1L124.64-10.1Q123.09-11.15 122.27-12.85 121.44-14.55 121.44-16.45L121.44-16.45Q121.44-17.25 121.59-18.05L121.59-18.05 121.34-18.05Q119.34-18.05 118.02-16.13 116.69-14.2 116.69-10.7L116.69-10.7Q116.69-7.95 117.77-6.5 118.84-5.05 120.29-5.05L120.29-5.05ZM189.19-11.05Q189.84-11.05 190.21-10.43 190.59-9.8 190.59-8.85L190.59-8.85Q190.59-7.7 190.24-7.05 189.89-6.4 189.14-5.9L189.14-5.9Q186.19-3.95 179.74 0.5L179.74 0.5Q177.79 10.85 174.69 16.8 171.59 22.75 166.84 22.75L166.84 22.75Q164.29 22.75 162.69 21.18 161.09 19.6 161.09 17.05L161.09 17.05Q161.09 14.7 162.14 12.3 163.19 9.9 166.06 6.75 168.94 3.6 174.19-0.45L174.19-0.45 174.34-1.4Q170.39 0.25 166.59 0.25L166.59 0.25Q160.99 0.25 156.74-1.93 152.49-4.1 150.14-8.1 147.78-12.1 147.78-17.4L147.78-17.4Q147.78-24.8 150.59-30.48 153.39-36.15 158.31-39.28 163.24-42.4 169.34-42.4L169.34-42.4Q175.19-42.4 178.11-39.68 181.04-36.95 181.04-32.45L181.04-32.45Q181.04-29.5 179.96-27.73 178.89-25.95 176.89-25.95L176.89-25.95Q175.54-25.95 174.71-26.6 173.89-27.25 173.89-28.4L173.89-28.4Q173.89-28.9 174.09-30.1L174.09-30.1Q174.39-31.5 174.39-32.3L174.39-32.3Q174.39-34.4 173.11-35.55 171.84-36.7 168.84-36.7L168.84-36.7Q165.19-36.7 162.06-34.6 158.94-32.5 157.03-28.33 155.14-24.15 155.14-18.3L155.14-18.3Q155.14-12.3 158.41-9.03 161.69-5.75 167.89-5.75L167.89-5.75Q171.34-5.75 175.09-7.3L175.09-7.3 175.79-13.4 170.69-13.4Q169.29-13.4 168.54-14.08 167.79-14.75 167.79-16.3L167.79-16.3Q167.79-17.7 168.54-18.5 169.29-19.3 170.54-19.3L170.54-19.3 179.89-19.3Q180.99-19.3 181.71-18.57 182.44-17.85 182.29-16.5L182.29-16.5Q182.14-14.9 181.29-9.25L181.29-9.25 180.74-5.45Q184.74-8.45 188.04-10.65L188.04-10.65Q188.69-11.05 189.19-11.05L189.19-11.05ZM167.39 17.9Q168.69 17.9 170.24 14.95 171.79 12 173.14 5.45L173.14 5.45Q169.34 8.7 167.66 11.33 165.99 13.95 165.99 15.95L165.99 15.95Q165.99 17.9 167.39 17.9L167.39 17.9ZM193.18 0.25Q190.08 0.25 188.23-2 186.38-4.25 186.38-7.9L186.38-7.9Q186.38-11.9 188.23-15.48 190.08-19.05 193.16-21.23 196.23-23.4 199.68-23.4L199.68-23.4Q200.78-23.4 201.16-22.98 201.53-22.55 201.78-21.45L201.78-21.45Q202.83-21.65 203.98-21.65L203.98-21.65Q206.43-21.65 206.43-19.9L206.43-19.9Q206.43-18.85 205.68-14.9L205.68-14.9Q204.53-9.15 204.53-6.9L204.53-6.9Q204.53-6.15 204.91-5.7 205.28-5.25 205.88-5.25L205.88-5.25Q206.83-5.25 208.18-6.48 209.53-7.7 211.83-10.45L211.83-10.45Q212.43-11.15 213.18-11.15L213.18-11.15Q213.83-11.15 214.21-10.55 214.58-9.95 214.58-8.9L214.58-8.9Q214.58-6.9 213.63-5.8L213.63-5.8Q211.58-3.25 209.28-1.5 206.98 0.25 204.83 0.25L204.83 0.25Q203.18 0.25 201.81-0.88 200.43-2 199.73-3.95L199.73-3.95Q197.13 0.25 193.18 0.25L193.18 0.25ZM194.98-4.8Q196.08-4.8 197.08-6.1 198.08-7.4 198.53-9.55L198.53-9.55 200.38-18.75Q198.28-18.7 196.51-17.18 194.73-15.65 193.68-13.15 192.63-10.65 192.63-7.85L192.63-7.85Q192.63-6.3 193.26-5.55 193.88-4.8 194.98-4.8L194.98-4.8ZM229.48-11.15Q230.13-11.15 230.51-10.55 230.88-9.95 230.88-8.9L230.88-8.9Q230.88-6.9 229.93-5.8L229.93-5.8Q227.78-3.15 225.26-1.45 222.73 0.25 219.53 0.25L219.53 0.25Q215.13 0.25 213.01-3.75 210.88-7.75 210.88-14.1L210.88-14.1Q210.88-20.2 212.46-28 214.03-35.8 217.11-41.4 220.18-47 224.43-47L224.43-47Q226.83-47 228.21-44.78 229.58-42.55 229.58-38.4L229.58-38.4Q229.58-32.45 226.28-24.6 222.98-16.75 217.33-9.05L217.33-9.05Q217.68-7 218.48-6.13 219.28-5.25 220.58-5.25L220.58-5.25Q222.63-5.25 224.18-6.43 225.73-7.6 228.13-10.45L228.13-10.45Q228.73-11.15 229.48-11.15L229.48-11.15ZM223.33-42.05Q222.18-42.05 220.73-37.9 219.28-33.75 218.18-27.6 217.08-21.45 216.98-15.8L216.98-15.8Q220.53-21.65 222.63-27.53 224.73-33.4 224.73-38.25L224.73-38.25Q224.73-42.05 223.33-42.05L223.33-42.05ZM245.78-11.15Q246.43-11.15 246.8-10.55 247.18-9.95 247.18-8.9L247.18-8.9Q247.18-6.9 246.23-5.8L246.23-5.8Q244.08-3.15 241.55-1.45 239.03 0.25 235.83 0.25L235.83 0.25Q231.43 0.25 229.3-3.75 227.18-7.75 227.18-14.1L227.18-14.1Q227.18-20.2 228.75-28 230.33-35.8 233.4-41.4 236.48-47 240.73-47L240.73-47Q243.13-47 244.5-44.78 245.88-42.55 245.88-38.4L245.88-38.4Q245.88-32.45 242.58-24.6 239.28-16.75 233.63-9.05L233.63-9.05Q233.98-7 234.78-6.13 235.58-5.25 236.88-5.25L236.88-5.25Q238.93-5.25 240.48-6.43 242.03-7.6 244.43-10.45L244.43-10.45Q245.03-11.15 245.78-11.15L245.78-11.15ZM239.63-42.05Q238.48-42.05 237.03-37.9 235.58-33.75 234.48-27.6 233.38-21.45 233.28-15.8L233.28-15.8Q236.83-21.65 238.93-27.53 241.03-33.4 241.03-38.25L241.03-38.25Q241.03-42.05 239.63-42.05L239.63-42.05ZM265.43-11.15Q266.08-11.15 266.45-10.55 266.83-9.95 266.83-8.9L266.83-8.9Q266.83-6.9 265.88-5.8L265.88-5.8Q264.03-3.55 260.65-1.65 257.28 0.25 253.43 0.25L253.43 0.25Q248.18 0.25 245.28-2.6 242.38-5.45 242.38-10.4L242.38-10.4Q242.38-13.85 243.83-16.82 245.28-19.8 247.85-21.55 250.43-23.3 253.68-23.3L253.68-23.3Q256.58-23.3 258.33-21.58 260.08-19.85 260.08-16.9L260.08-16.9Q260.08-13.45 257.6-10.98 255.13-8.5 249.23-7.05L249.23-7.05Q250.48-4.75 253.98-4.75L253.98-4.75Q256.23-4.75 259.1-6.33 261.98-7.9 264.08-10.45L264.08-10.45Q264.68-11.15 265.43-11.15L265.43-11.15ZM252.83-18.4Q250.98-18.4 249.7-16.25 248.43-14.1 248.43-11.05L248.43-11.05 248.43-10.95Q251.38-11.65 253.08-13.05 254.78-14.45 254.78-16.3L254.78-16.3Q254.78-17.25 254.25-17.82 253.73-18.4 252.83-18.4L252.83-18.4ZM266.32 0.25Q264.42 0.25 263.65-1.75 262.87-3.75 262.87-8.15L262.87-8.15Q262.87-14.65 264.72-20.5L264.72-20.5Q265.17-21.95 266.2-22.63 267.22-23.3 269.07-23.3L269.07-23.3Q270.07-23.3 270.47-23.05 270.87-22.8 270.87-22.1L270.87-22.1Q270.87-21.3 270.12-18.5L270.12-18.5Q269.62-16.5 269.32-15 269.02-13.5 268.82-11.3L268.82-11.3Q270.47-15.6 272.52-18.3 274.57-21 276.55-22.15 278.52-23.3 280.17-23.3L280.17-23.3Q283.42-23.3 283.42-20.05L283.42-20.05Q283.42-19.4 282.97-16.9L282.97-16.9Q282.57-14.9 282.57-14.4L282.57-14.4Q282.57-12.65 283.82-12.65L283.82-12.65Q285.22-12.65 287.42-14.85L287.42-14.85Q288.07-15.5 288.77-15.5L288.77-15.5Q289.42-15.5 289.8-14.93 290.17-14.35 290.17-13.4L290.17-13.4Q290.17-11.55 289.17-10.5L289.17-10.5Q287.77-9.05 285.9-8.03 284.02-7 281.92-7L281.92-7Q279.27-7 277.9-8.35 276.52-9.7 276.52-12L276.52-12Q276.52-12.75 276.67-13.5L276.67-13.5Q276.77-14.5 276.77-14.85L276.77-14.85Q276.77-15.65 276.22-15.65L276.22-15.65Q275.47-15.65 274.25-13.98 273.02-12.3 271.82-9.55 270.62-6.8 269.87-3.75L269.87-3.75Q269.32-1.4 268.6-0.58 267.87 0.25 266.32 0.25L266.32 0.25ZM311.12-11.05Q311.77-11.05 312.15-10.43 312.52-9.8 312.52-8.85L312.52-8.85Q312.52-7.7 312.17-7.05 311.82-6.4 311.07-5.9L311.07-5.9 301.47 0.55Q299.57 10.9 296.5 16.82 293.42 22.75 288.67 22.75L288.67 22.75Q286.12 22.75 284.52 21.18 282.92 19.6 282.92 17.05L282.92 17.05Q282.92 14.7 284 12.25 285.07 9.8 288 6.63 290.92 3.45 296.27-0.65L296.27-0.65 296.42-1.8Q296.77-3.65 297.22-7.1L297.22-7.1Q296.22-3.5 294.42-1.63 292.62 0.25 290.62 0.25L290.62 0.25Q288.37 0.25 286.95-1.83 285.52-3.9 285.52-7L285.52-7Q285.52-10.75 286.02-13.88 286.52-17 287.67-20.5L287.67-20.5Q288.17-22 289.07-22.65 289.97-23.3 291.92-23.3L291.92-23.3Q293.02-23.3 293.45-22.95 293.87-22.6 293.87-21.9L293.87-21.9Q293.87-21.5 293.32-19.2L293.32-19.2Q292.82-17.35 292.52-15.85L292.52-15.85Q292.12-13.8 291.82-11.93 291.52-10.05 291.52-8.85L291.52-8.85Q291.52-6.95 292.57-6.95L292.57-6.95Q293.32-6.95 294.45-8.45 295.57-9.95 296.85-13 298.12-16.05 299.32-20.5L299.32-20.5Q299.72-22 300.55-22.65 301.37-23.3 303.02-23.3L303.02-23.3Q304.17-23.3 304.62-23 305.07-22.7 305.07-22L305.07-22Q305.07-20.75 303.77-13.4L303.77-13.4 302.47-5.35Q306.32-8.25 309.97-10.65L309.97-10.65Q310.62-11.05 311.12-11.05L311.12-11.05ZM289.22 17.9Q290.47 17.9 292.02 15 293.57 12.1 295.12 5.35L295.12 5.35Q291.27 8.6 289.55 11.28 287.82 13.95 287.82 15.95L287.82 15.95Q287.82 16.8 288.15 17.35 288.47 17.9 289.22 17.9L289.22 17.9Z" opacity="1" transform="matrix(1,0,0,1,0,0)" fill="#ffffff" class="undefined-text-0" data-fill-palette-color="primary" id="text-0"></path></svg></g></svg></g></svg></g></svg></g></svg></g></svg></g></svg></g><g><path d="M245.816 0c68.262 0 123.6 55.338 123.6 123.6 0 68.262-55.338 123.6-123.6 123.6-56.484 0-104.119-37.889-118.876-89.637l2.58 0c14.683 50.362 61.192 87.159 116.296 87.159 66.894 0 121.122-54.228 121.122-121.122 0-66.894-54.228-121.122-121.122-121.122-55.104 0-101.613 36.797-116.296 87.159l-2.58 0c14.757-51.749 62.391-89.637 118.876-89.637z" fill="#ffffff" stroke="transparent" data-fill-palette-color="tertiary"></path></g></svg></g><defs></defs></svg><rect width="395.52" height="247.2" fill="none" stroke="none" visibility="hidden"></rect></g></svg></g></svg>